<svg id="Titre" xmlns="http://www.w3.org/2000/svg" width="64.000000px" height="64.000000px" viewBox="0 0 64.000000 64.000000">
    <title>ICON_VS_TOOLBAR</title>
  <g
     id="g15"
     transform="matrix(0.09480402,0,0,0.09141583,4.1515353,4.4839175)">
    <g
       id="g13">
      <path
         d="m 44.581,458.144 h 24.352 c -4.621,92.173 91.928,110.398 167.027,107.491 3.103,5.331 8.813,8.947 15.422,8.947 h 76.42 c 9.891,0 17.908,-8.017 17.908,-17.907 v -15.777 c 0,-9.89 -8.018,-17.907 -17.908,-17.907 h -76.42 c -8.715,0 -15.961,6.23 -17.564,14.48 -60.777,3.151 -139.383,-5.937 -136.262,-79.321 h 32.957 c 8.409,0 15.22,-6.817 15.22,-15.227 V 264.574 c 0,-8.409 -6.818,-15.227 -15.22,-15.227 H 84.392 C 90.408,139.585 181.369,48.954 288.39,48.954 c 107.02,0 197.982,90.625 203.998,200.393 h -48.324 c -8.408,0 -15.221,6.818 -15.221,15.227 v 178.349 c 0,8.409 6.812,15.227 15.221,15.227 h 85.938 c 8.408,0 15.227,-6.817 15.227,-15.227 V 264.574 c 0,-3.776 -1.426,-7.185 -3.703,-9.847 C 538.202,116.023 423.685,0 288.39,0 153.798,0 39.765,114.83 35.309,252.579 c -3.599,2.778 -5.955,7.093 -5.955,11.995 v 178.349 c 0,8.402 6.818,15.221 15.227,15.221 z"
         id="path11" />
    </g>
  </g>
  
</svg>
